<?xml version="1.0" standalone="no"?>
<!DOCTYPE svg PUBLIC "-//W3C//DTD SVG 20010904//EN"
 "http://www.w3.org/TR/2001/REC-SVG-20010904/DTD/svg10.dtd">
<svg version="1.0" xmlns="http://www.w3.org/2000/svg"
 width="1348.000000pt" height="1348.000000pt" viewBox="0 0 1348.000000 1348.000000"
 preserveAspectRatio="xMidYMid meet">
<metadata>
Created by potrace 1.11, written by Peter Selinger 2001-2013
</metadata>
<g transform="translate(0.000000,1348.000000) scale(0.100000,-0.100000)"
fill="#000000" stroke="none">
<path d="M6649 12662 c-164 -239 -369 -551 -489 -747 -40 -66 -83 -136 -96
-155 -27 -42 -244 -411 -244 -415 0 -2 -17 -34 -38 -72 -127 -225 -280 -532
-342 -683 -12 -30 -28 -68 -36 -85 -55 -121 -130 -361 -159 -510 -3 -15 -21
-26 -62 -40 -63 -21 -284 -107 -373 -146 -185 -80 -473 -241 -660 -368 -99
-67 -303 -220 -355 -266 -16 -14 -54 -47 -84 -73 -162 -139 -400 -378 -536
-537 -27 -32 -64 -74 -81 -94 -91 -106 -307 -415 -389 -556 -66 -112 -78 -136
-154 -290 -153 -310 -278 -667 -346 -985 -26 -122 -60 -322 -71 -422 -3 -29
-7 -64 -9 -77 -26 -163 -26 -858 0 -1046 2 -16 9 -70 15 -120 7 -49 14 -103
17 -120 2 -16 6 -46 9 -65 2 -19 9 -50 14 -70 5 -19 11 -51 14 -70 3 -19 8
-46 11 -60 15 -64 18 -93 9 -87 -5 3 -25 -8 -43 -24 -18 -16 -37 -26 -42 -23
-5 3 -9 -2 -9 -11 0 -9 -4 -13 -10 -10 -5 3 -10 -1 -10 -10 0 -9 -9 -19 -20
-22 -11 -3 -17 -10 -13 -16 4 -6 0 -8 -10 -4 -9 3 -16 3 -16 -1 3 -17 -1 -35
-7 -30 -6 7 -63 -44 -59 -52 2 -3 -3 -11 -11 -18 -8 -7 -14 -9 -14 -5 0 4 -8
-7 -16 -24 -9 -18 -20 -30 -25 -27 -5 2 -11 -7 -15 -21 -3 -13 -10 -22 -15
-19 -5 3 -9 1 -9 -4 0 -4 -9 -18 -20 -30 -12 -12 -18 -22 -15 -22 3 0 -7 -13
-22 -28 -15 -16 -29 -35 -31 -43 -2 -8 -8 -16 -13 -17 -5 -2 -7 -7 -4 -12 3
-5 -4 -11 -14 -15 -11 -3 -18 -12 -15 -19 3 -8 -6 -22 -20 -33 -19 -16 -22
-23 -13 -32 9 -10 8 -11 -7 -5 -14 5 -17 4 -12 -4 4 -7 1 -15 -8 -18 -9 -3
-14 -9 -11 -14 6 -10 -54 -90 -68 -90 -7 0 -6 -4 3 -10 12 -8 12 -10 -3 -16
-9 -3 -17 -12 -17 -20 0 -8 -5 -14 -11 -14 -5 0 -7 -4 -4 -10 3 -5 3 -10 -2
-10 -4 0 -13 -10 -19 -23 -34 -67 -46 -87 -55 -87 -6 0 -7 -4 -4 -10 3 -5 1
-10 -5 -10 -7 0 -10 -6 -7 -14 3 -8 -1 -17 -9 -20 -9 -3 -12 -10 -9 -16 3 -5
1 -10 -5 -10 -7 0 -9 -7 -6 -16 3 -8 2 -12 -4 -9 -6 3 -10 -1 -10 -9 0 -9 -5
-16 -11 -16 -5 0 -7 -5 -4 -10 3 -6 1 -10 -5 -10 -6 0 -8 -4 -5 -10 3 -5 1
-10 -5 -10 -6 0 -9 -4 -6 -9 3 -5 -1 -12 -10 -15 -8 -3 -12 -10 -9 -16 3 -5 1
-10 -5 -10 -6 0 -9 -4 -6 -9 3 -5 -1 -14 -9 -21 -8 -7 -12 -16 -9 -21 3 -5 0
-9 -6 -9 -10 0 -34 -51 -30 -66 1 -3 -7 -12 -17 -20 -10 -7 -14 -14 -10 -14 5
0 1 -7 -7 -16 -9 -8 -14 -19 -11 -24 3 -4 -2 -13 -10 -20 -8 -7 -15 -19 -15
-26 0 -8 -4 -14 -9 -14 -6 0 -8 -10 -6 -21 3 -12 2 -19 -2 -15 -9 8 -36 -32
-29 -43 3 -5 -1 -11 -9 -15 -8 -3 -15 -11 -15 -18 0 -8 -18 -49 -40 -92 -22
-43 -40 -84 -40 -91 0 -7 -5 -15 -11 -17 -5 -2 -11 -12 -13 -21 -1 -10 -9 -23
-17 -28 -8 -5 -10 -9 -5 -9 5 0 3 -7 -4 -15 -6 -8 -8 -20 -4 -26 5 -8 3 -9 -6
-4 -10 6 -12 4 -7 -8 3 -9 0 -18 -9 -21 -9 -3 -13 -10 -9 -15 3 -5 1 -12 -5
-16 -6 -4 -8 -11 -5 -16 4 -5 1 -9 -5 -9 -7 0 -9 -7 -6 -16 3 -8 2 -12 -4 -9
-6 3 -10 -1 -10 -10 0 -10 -5 -13 -12 -9 -7 4 -8 3 -4 -4 4 -6 -2 -30 -13 -53
-11 -23 -18 -46 -14 -52 3 -6 1 -7 -4 -4 -10 6 -27 -27 -24 -46 1 -4 -4 -7
-10 -7 -5 0 -7 -5 -3 -12 4 -6 -1 -17 -11 -25 -11 -7 -15 -13 -11 -13 5 0 3
-7 -4 -15 -6 -8 -9 -19 -5 -25 3 -5 2 -10 -3 -10 -12 0 -36 -59 -33 -79 1 -7
-2 -10 -8 -6 -9 5 -16 -9 -8 -18 1 -2 -6 -15 -16 -31 -10 -15 -16 -30 -13 -33
3 -3 -2 -12 -10 -20 -8 -8 -12 -19 -9 -24 4 -5 1 -9 -4 -9 -6 0 -11 -9 -11
-20 0 -11 -5 -20 -11 -20 -5 0 -8 -4 -4 -9 3 -5 0 -13 -6 -16 -5 -4 -8 -13 -5
-20 2 -7 -2 -16 -10 -19 -9 -3 -13 -10 -9 -15 3 -5 1 -12 -5 -16 -6 -4 -8 -11
-5 -16 4 -5 1 -9 -5 -9 -6 0 -8 -4 -5 -10 3 -5 2 -10 -4 -10 -6 0 -8 -6 -5
-14 3 -8 1 -17 -5 -21 -6 -3 -11 -15 -11 -26 0 -10 -5 -19 -11 -19 -5 0 -7 -4
-4 -10 3 -5 1 -10 -6 -10 -7 0 -9 -3 -6 -7 4 -3 1 -13 -6 -21 -10 -13 -9 -15
3 -8 13 6 13 6 0 -6 -32 -27 -18 -43 40 -43 30 0 61 4 69 10 11 7 13 7 8 -2
-5 -8 4 -11 33 -8 22 2 40 -1 40 -6 0 -6 5 -7 10 -4 6 4 7 12 3 18 -5 9 -3 9
8 1 8 -6 44 -11 80 -11 37 0 72 -3 78 -7 6 -4 11 -1 11 6 0 10 2 10 9 -1 6
-10 10 -10 16 -1 6 9 10 9 16 -1 5 -8 9 -9 9 -3 0 12 41 11 59 -1 6 -3 11 -2
11 3 0 6 14 7 35 2 22 -5 35 -4 35 2 0 6 6 5 15 -2 12 -10 15 -10 15 1 0 12 2
12 9 0 6 -9 10 -10 16 -2 5 9 10 9 21 0 11 -9 14 -9 14 0 0 8 5 9 19 1 14 -7
21 -6 24 3 4 9 6 8 6 -2 1 -11 4 -11 16 -1 12 10 15 10 15 -1 0 -11 3 -11 11
1 8 12 12 12 16 2 4 -10 8 -10 19 -1 11 9 14 8 14 -2 0 -11 2 -11 9 0 8 12 12
12 25 2 9 -8 16 -9 16 -3 0 5 19 8 43 7 23 -2 48 2 56 9 11 8 13 8 8 -1 -5 -8
2 -11 22 -11 19 1 28 5 24 12 -4 6 1 5 11 -3 15 -13 19 -13 27 0 5 8 9 9 9 2
0 -12 17 -12 37 0 6 4 15 2 19 -4 4 -8 9 -7 15 2 6 9 9 10 9 2 0 -8 9 -9 30
-3 18 5 32 5 36 -1 3 -5 11 -6 17 -2 19 12 36 12 43 2 4 -6 10 -6 17 -1 7 5
32 9 57 8 25 -1 60 2 78 5 21 5 32 3 32 -5 0 -6 5 -3 11 7 6 10 15 14 22 10
17 -11 49 -11 71 0 13 6 16 6 12 -2 -5 -7 -1 -9 8 -5 9 3 16 11 16 18 0 6 4 5
9 -3 11 -16 41 -24 41 -10 0 5 14 7 30 5 17 -2 30 -1 30 3 0 3 31 6 69 5 39 0
68 2 66 6 -2 3 16 5 41 4 28 -2 44 2 44 9 0 8 3 7 9 -2 5 -7 11 -9 14 -4 3 5
24 8 47 7 22 -1 43 3 46 8 3 5 12 4 20 -3 10 -8 14 -8 14 0 0 7 10 10 25 7 15
-3 25 0 25 7 0 7 4 6 10 -3 8 -12 10 -12 10 -1 0 11 3 11 17 0 11 -9 14 -10 9
-2 -5 9 0 13 16 13 13 -1 46 2 73 5 28 4 56 7 63 8 6 0 12 5 12 11 0 6 5 4 10
-4 7 -11 12 -12 21 -3 6 6 18 9 27 6 9 -4 13 -2 9 4 -4 6 3 8 20 5 20 -4 24
-2 18 9 -6 11 -5 11 5 2 8 -7 19 -9 29 -4 9 5 24 7 34 6 9 -2 17 0 17 3 0 4
12 8 28 9 54 3 72 7 72 18 0 5 5 3 10 -5 7 -12 10 -12 10 -1 0 8 6 11 16 7 8
-3 12 -2 9 4 -4 6 6 8 24 6 17 -2 31 0 31 4 0 6 7 8 50 12 11 1 20 6 20 10 0
4 7 8 16 8 9 0 13 -5 9 -12 -4 -7 -1 -6 7 2 7 8 24 17 38 19 14 1 28 8 32 15
4 6 8 8 8 3 0 -4 16 0 36 8 20 8 40 12 45 9 5 -3 9 0 9 5 0 6 7 11 15 11 8 0
15 5 15 12 0 6 3 8 7 5 3 -4 13 -1 21 6 13 10 15 9 8 -3 -4 -8 0 -6 9 5 9 11
17 19 18 18 6 -7 46 11 41 18 -3 5 7 9 23 9 18 0 41 -12 63 -33 56 -53 254
-198 395 -289 203 -132 393 -236 620 -338 117 -53 440 -170 509 -185 12 -2 61
-15 109 -29 86 -24 286 -70 357 -81 19 -3 60 -10 91 -16 31 -5 74 -11 95 -13
41 -5 118 -14 170 -21 194 -27 828 -27 1014 0 14 2 52 6 85 10 192 20 427 66
650 127 61 17 124 34 140 38 17 4 50 15 75 25 25 9 52 18 60 20 25 6 219 81
305 118 319 137 686 357 959 574 69 55 94 69 107 63 9 -5 20 -6 24 -2 3 4 5 1
3 -7 -1 -7 6 -15 16 -17 10 -1 23 -9 27 -16 5 -7 9 -9 9 -4 0 4 11 1 25 -8 13
-9 31 -16 40 -16 9 0 18 -6 21 -14 3 -8 16 -13 30 -11 13 1 24 -2 24 -6 0 -5
9 -9 20 -9 11 0 20 -4 20 -8 0 -4 10 -8 22 -9 11 -1 25 -8 29 -15 6 -10 9 -10
9 -1 0 7 7 10 15 7 8 -4 12 -11 8 -18 -4 -6 1 -5 10 3 11 8 17 9 17 3 0 -6 7
-9 15 -6 8 4 15 1 15 -6 0 -9 4 -9 17 1 9 8 14 9 10 3 -4 -7 0 -14 8 -18 8 -3
15 -1 15 5 0 5 12 1 27 -8 15 -10 24 -13 20 -6 -5 9 3 8 27 -2 43 -18 49 -19
40 -2 -4 6 3 3 16 -8 14 -12 20 -14 15 -5 -7 12 -6 13 6 3 12 -10 18 -10 29 0
10 9 11 9 6 0 -7 -13 0 -16 37 -16 9 0 17 -4 17 -10 0 -5 7 -4 15 3 9 7 15 8
15 2 0 -6 11 -9 25 -7 14 1 28 -1 31 -6 2 -4 11 -6 19 -2 9 3 15 -1 15 -8 0
-11 3 -11 10 1 7 11 10 11 10 2 0 -10 5 -10 20 -2 16 9 20 8 20 -5 0 -12 4
-14 19 -5 16 8 22 6 29 -6 8 -15 10 -15 15 0 5 14 11 15 27 6 11 -6 20 -7 20
-3 0 4 5 1 10 -7 9 -13 10 -13 10 0 0 13 2 13 9 1 7 -11 13 -12 23 -3 10 8 18
8 25 1 5 -5 36 -11 69 -12 32 -1 62 -6 66 -12 5 -6 8 -5 8 3 0 8 5 10 13 5 18
-11 60 -11 76 1 11 9 13 8 9 -4 -4 -12 3 -15 36 -15 22 0 44 5 48 10 5 6 8 5
8 -2 0 -7 6 -10 14 -7 8 3 17 0 21 -5 3 -6 12 -8 18 -4 18 11 47 11 47 -1 0
-6 4 -6 12 2 7 7 17 8 27 3 9 -5 18 -10 21 -12 3 -1 16 3 29 10 13 7 21 9 18
4 -3 -5 19 -9 51 -8 31 0 63 -3 70 -8 7 -6 12 -6 12 0 0 11 33 9 64 -3 14 -5
17 -4 11 5 -6 10 -3 11 14 2 16 -9 21 -9 21 1 0 8 3 9 8 3 9 -13 42 -16 42 -3
0 5 5 6 10 3 6 -4 7 -12 3 -18 -5 -9 -3 -9 8 -1 20 16 82 16 72 1 -4 -8 -1 -8
9 1 17 14 39 13 50 -3 5 -6 8 -6 8 2 0 13 18 12 39 -1 9 -6 12 -5 8 0 -3 6 11
10 34 10 21 0 39 -4 40 -10 0 -6 4 -2 9 9 5 11 9 14 9 7 1 -7 5 -11 10 -7 5 3
13 1 16 -5 5 -8 11 -7 21 1 11 9 18 8 31 -2 11 -10 14 -10 9 -1 -9 16 6 16 23
0 8 -7 11 -8 8 -2 -4 7 13 10 49 11 33 0 54 -4 54 -11 0 -6 4 -5 9 2 4 8 12
14 16 14 4 0 12 -6 16 -14 6 -9 9 -9 9 -1 0 8 28 11 95 10 52 -1 95 2 95 7 0
5 7 3 15 -4 8 -7 15 -9 15 -4 0 5 35 8 78 8 42 -1 82 3 89 8 7 5 14 5 18 -2 6
-9 58 -6 77 6 4 3 8 0 8 -6 0 -7 7 -9 15 -6 8 3 22 9 32 13 12 5 14 3 8 -7 -5
-9 -4 -11 3 -6 21 12 51 15 58 5 4 -6 11 -6 19 1 8 7 19 9 25 5 5 -3 10 0 10
7 0 10 3 9 11 -2 7 -11 12 -12 15 -3 3 7 12 9 20 6 8 -3 14 0 14 6 0 6 -4 11
-9 11 -6 0 -8 9 -6 20 2 11 0 20 -6 20 -5 0 -9 9 -9 20 0 11 -4 20 -10 20 -5
0 -10 12 -10 26 0 16 -4 23 -12 18 -8 -5 -9 0 -6 14 4 12 2 22 -2 22 -10 0
-32 60 -22 60 4 0 1 4 -6 9 -7 4 -14 17 -15 29 0 11 -5 18 -9 16 -4 -3 -8 4
-8 16 0 12 -4 19 -9 15 -6 -3 -8 4 -6 15 2 11 0 20 -6 20 -5 0 -9 3 -8 8 3 19
-14 51 -25 45 -6 -4 -5 1 3 10 12 15 11 17 -3 17 -9 0 -16 5 -16 11 0 5 6 7
13 3 6 -4 4 2 -5 13 -10 11 -18 25 -18 31 0 7 -4 12 -10 12 -5 0 -7 7 -4 15 4
8 1 15 -6 15 -6 0 -8 5 -5 10 3 5 1 10 -5 10 -6 0 -9 4 -5 9 3 6 -3 14 -12 20
-14 8 -15 11 -3 11 12 0 11 3 -2 11 -10 5 -18 15 -18 20 0 6 6 7 13 3 6 -4 4
1 -5 12 -9 10 -18 26 -20 34 -2 8 -9 21 -16 28 -7 8 -10 18 -7 23 4 5 1 9 -4
9 -6 0 -11 7 -11 16 0 9 -8 23 -17 31 -10 8 -12 12 -5 8 6 -3 1 15 -13 41 -14
26 -25 53 -25 61 0 8 -4 11 -10 8 -5 -3 -10 3 -10 15 0 12 -7 28 -16 37 -8 9
-13 21 -10 28 3 8 -2 16 -9 19 -8 3 -12 12 -9 21 3 8 1 15 -4 15 -6 0 -16 16
-23 35 -7 19 -17 35 -21 35 -4 0 -8 12 -8 26 0 17 -4 23 -12 18 -8 -5 -9 -2
-5 9 4 10 2 17 -4 17 -6 0 -8 7 -5 16 3 8 2 12 -3 9 -8 -4 -24 26 -24 45 0 3
-7 10 -16 17 -9 7 -12 13 -7 13 5 0 -1 12 -15 27 -13 14 -18 23 -11 19 6 -4
12 -2 12 3 0 6 -6 11 -14 11 -9 0 -13 7 -11 20 2 11 0 20 -5 20 -5 0 -12 11
-16 25 -3 14 -9 25 -13 25 -4 0 -13 16 -21 35 -8 19 -18 35 -22 35 -5 0 -6 5
-3 10 3 6 1 10 -5 10 -6 0 -8 5 -5 10 3 6 1 10 -5 10 -7 0 -10 6 -7 14 3 7 -4
21 -14 30 -11 9 -17 21 -14 26 3 6 1 10 -4 10 -6 0 -11 7 -11 15 0 8 -4 15
-10 15 -5 0 -10 11 -10 25 0 14 -7 28 -15 31 -8 4 -15 13 -15 20 0 8 -7 17
-15 20 -8 4 -12 11 -8 17 3 5 0 15 -8 21 -8 6 -21 26 -28 44 -7 17 -18 32 -24
32 -6 0 -8 3 -4 6 3 4 -1 13 -9 21 -8 8 -12 18 -9 23 3 4 -2 10 -10 14 -8 3
-15 12 -15 21 0 8 -5 15 -11 15 -5 0 -7 5 -4 10 3 6 1 10 -5 10 -6 0 -9 4 -6
9 3 5 -1 12 -10 15 -9 4 -14 13 -10 21 3 9 0 15 -10 15 -8 0 -13 4 -10 9 4 5
3 11 -2 13 -4 1 -20 23 -34 48 -14 25 -36 56 -47 69 -12 13 -21 28 -21 32 0 4
-11 20 -25 34 -15 14 -20 25 -13 25 7 1 3 6 -10 13 -12 7 -20 16 -16 20 4 3
-1 9 -10 13 -9 3 -13 10 -10 15 3 5 -2 12 -10 15 -9 3 -16 11 -16 18 0 6 -9
18 -20 26 -11 8 -20 19 -20 25 0 6 -8 18 -17 27 -45 42 -83 87 -83 98 0 6 -4
8 -10 5 -5 -3 -10 1 -10 10 0 9 -9 19 -20 22 -11 3 -18 8 -17 12 2 3 -14 23
-35 43 -21 20 -38 34 -38 32 0 -3 -6 1 -14 8 -8 7 -12 16 -9 21 2 4 -1 6 -9 5
-7 -2 -12 2 -11 9 2 7 -3 10 -11 7 -7 -3 -16 2 -19 10 -4 9 -13 16 -22 16 -14
0 -20 12 -16 34 1 4 10 52 21 105 77 393 99 634 95 1036 -2 165 -6 311 -8 325
-3 14 -8 61 -11 105 -4 44 -8 91 -10 105 -3 14 -7 49 -10 79 -4 30 -9 64 -11
75 -2 12 -7 37 -10 56 -11 80 -24 151 -29 158 -2 4 -7 28 -11 52 -16 110 -144
547 -195 665 -9 22 -32 76 -50 120 -54 130 -184 387 -266 523 -65 108 -203
318 -234 355 -6 7 -46 58 -90 114 -243 312 -563 629 -895 888 -93 72 -335 238
-415 283 -19 11 -64 36 -100 57 -197 114 -510 254 -752 336 -24 8 -38 20 -39
31 -1 10 -2 21 -3 26 -1 4 -6 25 -11 47 -11 55 -11 52 -29 122 -49 185 -162
456 -331 788 -72 143 -167 321 -210 395 -43 74 -87 151 -98 170 -10 19 -37 64
-59 100 -21 36 -44 74 -51 85 -6 11 -23 37 -36 59 -14 21 -30 46 -36 56 -12
22 -74 123 -95 156 -8 13 -33 51 -54 86 -108 172 -408 618 -416 617 -3 0 -17
-16 -31 -37z m-1012 -4052 c117 -228 259 -480 423 -750 188 -308 595 -929 610
-929 5 -1 15 14 174 249 84 125 207 312 231 352 6 9 60 97 121 195 236 377
379 628 535 938 45 88 83 162 85 164 11 12 391 -159 519 -233 274 -159 511
-343 745 -576 170 -169 276 -293 425 -497 67 -92 178 -282 255 -438 172 -349
262 -657 315 -1075 15 -119 20 -233 20 -430 0 -270 -9 -380 -46 -600 -32 -190
-30 -185 -67 -186 -18 0 -32 5 -32 10 0 7 -3 8 -8 1 -9 -13 -42 -16 -42 -4 0
11 -23 7 -32 -6 -5 -6 -8 -6 -8 2 0 6 -16 11 -37 11 -21 0 -40 1 -43 2 -3 1
-26 3 -52 5 -32 2 -48 -1 -48 -8 0 -7 -5 -4 -11 6 -8 13 -14 15 -29 7 -13 -7
-21 -7 -26 1 -4 8 -9 7 -15 -2 -6 -9 -9 -10 -9 -2 0 13 -38 12 -59 -2 -9 -5
-12 -4 -8 2 4 7 -14 11 -51 11 -148 0 -163 2 -156 15 6 9 5 9 -7 0 -18 -14
-61 -13 -71 2 -5 7 -8 6 -8 -1 0 -6 -11 -11 -25 -11 -14 0 -25 5 -25 11 0 6
-4 5 -9 -3 -7 -11 -13 -12 -23 -3 -11 9 -17 9 -26 0 -8 -8 -15 -8 -26 1 -11 9
-16 9 -21 0 -6 -8 -10 -7 -16 2 -7 11 -9 11 -9 1 0 -9 -5 -10 -17 -3 -13 7
-23 5 -36 -7 -10 -9 -18 -12 -17 -7 5 21 -1 27 -14 16 -10 -9 -16 -9 -21 -1
-5 8 -11 8 -21 -1 -11 -9 -14 -8 -14 2 0 12 -2 12 -9 0 -6 -9 -10 -10 -16 -2
-5 9 -10 9 -21 0 -11 -9 -14 -8 -14 2 0 9 -3 10 -8 4 -10 -14 -32 -17 -32 -4
0 8 -5 8 -15 -1 -12 -10 -15 -10 -15 1 0 10 -3 10 -12 1 -15 -15 -32 -16 -22
-1 5 8 1 8 -14 0 -27 -14 -35 -14 -26 1 5 9 2 9 -9 -1 -14 -11 -17 -11 -17 0
0 9 -3 10 -8 4 -9 -13 -42 -13 -61 -1 -9 6 -12 5 -7 -2 4 -7 -1 -10 -14 -9
-11 1 -20 6 -20 12 0 5 -5 3 -10 -5 -7 -12 -13 -13 -28 -3 -15 9 -22 9 -31 0
-9 -9 -17 -8 -32 1 -12 8 -18 9 -15 4 3 -5 -3 -12 -14 -15 -11 -3 -22 -1 -25
3 -3 4 -14 6 -26 3 -12 -4 -25 0 -30 8 -7 11 -9 11 -9 1 0 -10 -15 -12 -55
-10 -41 2 -58 -1 -65 -12 -6 -9 -10 -10 -10 -3 0 15 -100 13 -100 -2 0 -6 -3
-6 -8 1 -8 12 -53 14 -46 2 3 -4 1 -8 -5 -8 -5 0 -13 5 -16 10 -4 7 -12 7 -25
0 -25 -13 -33 -13 -24 3 4 6 -2 4 -13 -6 -14 -13 -23 -15 -28 -7 -5 8 -11 8
-22 -1 -11 -10 -11 -4 3 32 9 24 21 49 26 55 27 36 81 229 102 365 16 108 15
381 -3 469 -6 30 -13 64 -15 75 -34 170 -125 368 -238 519 -95 127 -184 214
-363 354 -50 39 -250 144 -309 161 -99 30 -176 50 -216 56 -25 4 -54 9 -65 12
-11 3 -92 6 -181 7 -157 3 -278 -8 -389 -36 -27 -6 -52 -13 -55 -13 -96 -22
-275 -108 -395 -189 -106 -73 -281 -241 -357 -346 -112 -152 -190 -316 -234
-487 -32 -126 -39 -193 -39 -363 0 -167 3 -198 39 -368 11 -50 61 -181 101
-264 l42 -88 -1038 0 -1039 0 -5 23 c-14 60 -44 229 -50 282 -4 33 -9 69 -11
80 -19 99 -26 581 -12 762 7 80 30 259 42 318 46 222 56 263 98 400 118 386
321 766 578 1081 123 150 322 358 448 468 48 41 101 87 117 101 124 108 407
294 584 384 179 90 411 185 422 173 3 -4 56 -104 116 -222z m2299 -3832 c5 -7
2 -9 -7 -4 -8 4 -6 1 4 -7 12 -10 15 -17 7 -22 -7 -4 -4 -13 9 -24 16 -14 18
-20 8 -31 -9 -10 -9 -11 1 -6 8 5 12 0 12 -13 0 -12 4 -21 9 -21 5 0 12 -7 15
-16 3 -8 2 -12 -4 -9 -6 3 -7 -1 -4 -9 3 -9 10 -16 14 -16 7 0 11 -12 25 -62
2 -5 3 -13 4 -19 0 -5 5 -8 9 -5 5 3 9 0 10 -7 3 -42 7 -55 14 -51 4 3 8 0 8
-7 0 -7 8 -22 18 -33 16 -20 16 -20 -1 -7 -15 12 -17 12 -11 -3 3 -9 10 -16
16 -16 5 0 7 -4 4 -9 -4 -5 -1 -11 4 -13 6 -2 12 -13 13 -26 0 -12 5 -22 9
-22 4 0 8 -7 8 -15 0 -8 6 -15 13 -15 8 0 7 -4 -3 -10 -14 -9 -6 -15 15 -10 6
1 7 -2 3 -5 -4 -4 2 -25 12 -46 11 -21 20 -45 20 -54 0 -8 4 -15 9 -15 5 0 11
-14 15 -31 3 -17 10 -28 15 -25 5 3 7 -2 5 -12 -3 -9 3 -26 14 -37 10 -12 18
-28 16 -37 -1 -9 5 -19 13 -22 8 -4 13 -13 9 -21 -3 -8 -1 -15 5 -15 6 0 7 -4
4 -10 -3 -5 -3 -10 2 -10 9 0 33 -48 33 -67 0 -7 5 -13 11 -13 5 0 7 -4 4 -10
-3 -5 -1 -10 5 -10 6 0 8 -4 5 -10 -3 -5 -1 -10 5 -10 6 0 9 -4 5 -9 -3 -5 2
-16 10 -24 8 -9 15 -23 15 -31 0 -9 5 -16 11 -16 5 0 8 -4 4 -9 -3 -5 1 -16 9
-24 8 -8 12 -17 9 -21 -4 -3 -1 -6 5 -6 6 0 9 -7 5 -17 -4 -11 -3 -14 5 -9 7
4 13 2 13 -3 4 -35 20 -71 30 -71 6 0 8 -4 4 -9 -3 -5 2 -16 10 -24 8 -9 15
-23 15 -31 0 -9 5 -16 10 -16 6 0 10 -9 10 -20 0 -11 5 -20 11 -20 5 0 7 -4 4
-10 -3 -5 0 -10 7 -10 9 0 9 -3 -2 -10 -13 -8 -12 -10 3 -10 15 0 19 -6 16
-26 0 -4 3 -10 8 -13 5 -3 21 -32 37 -63 15 -32 32 -58 37 -58 5 0 8 -3 7 -7
-4 -15 13 -53 23 -53 6 0 7 -4 4 -10 -3 -5 -1 -10 4 -10 6 0 11 -3 10 -7 -2
-16 14 -53 22 -53 5 0 9 -9 9 -21 0 -11 5 -17 10 -14 6 3 10 -1 10 -10 0 -8 9
-23 19 -32 11 -9 17 -22 14 -28 -2 -7 1 -16 6 -20 6 -3 8 -11 5 -17 -5 -7 -1
-9 9 -5 9 3 16 3 15 -1 -1 -4 2 -15 7 -25 4 -10 2 -24 -6 -33 -24 -30 -262
-204 -278 -204 -5 0 -11 -4 -13 -8 -7 -17 -210 -137 -358 -211 -219 -109 -433
-187 -680 -245 -118 -28 -126 -30 -265 -52 -55 -8 -111 -17 -125 -20 -74 -12
-230 -19 -430 -19 -284 0 -395 8 -590 41 -47 8 -101 17 -120 20 -59 9 -299 71
-396 103 -125 41 -273 100 -380 152 -155 76 -403 221 -412 242 -2 4 -8 7 -13
7 -10 0 -226 158 -254 186 -14 15 -14 18 0 40 8 13 12 24 8 24 -5 0 0 5 10 11
9 6 15 14 12 20 -4 5 -3 9 2 9 4 0 14 14 21 30 8 17 18 28 23 25 5 -4 6 2 2
11 -5 13 -3 15 7 9 10 -6 12 -4 7 9 -4 10 -1 19 8 22 7 3 17 19 20 35 4 16 10
29 14 29 4 0 13 16 21 35 8 19 18 35 23 35 5 0 7 6 4 14 -3 8 1 17 9 20 8 3
14 15 14 26 0 11 6 20 14 20 8 0 12 9 11 25 -2 14 0 23 5 20 8 -5 25 24 22 38
-1 4 3 7 9 7 5 0 7 5 4 10 -3 6 -1 10 5 10 6 0 8 5 5 10 -3 6 -2 10 3 10 9 0
18 20 20 44 0 5 4 12 9 15 16 12 34 52 27 63 -4 7 -3 8 4 4 11 -6 16 6 13 27
0 4 3 7 8 7 5 0 12 11 15 25 4 14 11 23 16 20 6 -3 7 1 4 9 -3 9 -1 16 5 16 6
0 8 7 5 15 -4 8 -1 15 7 15 7 0 9 3 6 7 -4 3 1 12 11 20 10 9 11 11 2 7 -12
-7 -13 -5 -3 8 7 8 9 19 5 23 -4 5 -2 5 5 1 8 -4 16 7 24 34 7 22 16 40 21 40
4 0 8 9 8 20 0 11 5 20 10 20 6 0 10 3 9 8 -2 15 14 52 23 52 5 0 6 5 3 10 -3
6 -1 10 6 10 8 0 8 4 -1 16 -10 12 -11 14 -1 12 7 -2 20 15 29 37 9 22 22 45
30 51 12 9 12 13 2 19 -7 4 -8 10 -3 14 14 10 63 102 50 95 -7 -4 -4 2 6 13 9
11 14 23 10 26 -3 4 -1 7 6 7 7 0 10 4 6 9 -3 6 3 14 12 20 11 6 13 11 5 11
-9 0 -7 8 7 29 11 15 18 31 14 35 -3 3 -1 6 5 6 7 0 11 3 10 8 -1 4 3 17 10
28 6 12 8 24 5 28 -3 3 -1 6 6 6 7 0 11 6 8 14 -3 8 -1 16 5 18 6 2 12 15 13
29 1 13 8 23 14 21 7 -1 10 2 6 8 -4 6 -1 17 5 25 6 8 9 19 5 25 -3 5 -2 10 3
10 9 0 25 37 23 53 -1 4 6 7 15 7 14 0 14 3 4 15 -7 9 -8 15 -2 15 9 0 27 46
24 62 -1 4 5 5 13 2 8 -4 15 -10 15 -15 0 -21 158 -214 238 -290 204 -193 424
-311 692 -370 89 -20 134 -23 290 -24 195 0 238 4 362 36 176 44 326 113 473
217 121 86 299 269 379 390 37 56 72 102 76 102 5 0 12 -5 16 -12z"/>
</g>
</svg>
